<svg width="120" height="104" viewBox="0 0 120 104" fill="none" xmlns="http://www.w3.org/2000/svg">
<g clip-path="url(#clip0_1_2)">
<path fill-rule="evenodd" clip-rule="evenodd" d="M26.9011 34.6225C22.4629 34.3765 17.4582 32.8647 13.6254 31.4533C9.15803 29.8088 3.92024 26.7852 2.5153 26.3256C0.0356012 34.8426 3.48322 44.5769 10.6698 49.4942C11.7187 50.2129 12.7772 50.7373 13.4311 51.6016C5.63272 61.7017 3.17892 78.8168 10.9029 91.8886C11.9744 93.7014 13.266 95.5401 14.4476 97.0292L19.2128 101.319C22.9776 92.9407 28.9276 86.5407 34.269 81.727C48.2958 69.0987 69.2599 64.858 88.6022 65.9198C93.8691 66.2111 98.9839 66.8326 103.998 67.8362C105.934 68.2246 117.18 71.3453 117.52 71.1187C118.656 70.1281 117.97 67.3182 117.844 65.9651C117.112 58.1149 113.085 53.1587 106.135 49.4618C100.483 46.4545 101.464 48.2867 99.4921 44.81C94.5813 36.1602 86.1257 27.9636 75.0577 23.9462C64.2681 20.0324 33.1683 15.9277 20.4073 10.7028C15.6324 8.75079 13.3761 7.42354 9.5465 4.5748C8.87963 4.07951 8.72425 3.9824 8.15126 3.34791C7.77251 2.93031 7.80812 2.91088 7.47469 2.51918L6.72366 1.71312C3.59652 8.21342 6.86286 19.2652 10.1778 23.5772C13.0297 27.2838 17.2446 30.508 21.6957 32.4342L26.9011 34.6225Z" stroke="#373435" stroke-width="3.4282" stroke-miterlimit="22.9256" stroke-linejoin="round"/>
<path fill-rule="evenodd" clip-rule="evenodd" d="M26.9011 34.6225C22.4629 34.3765 17.4582 32.8647 13.6254 31.4533C9.15803 29.8088 3.92024 26.7852 2.5153 26.3256C0.0356012 34.8426 3.48322 44.5769 10.6698 49.4942C11.7187 50.2129 12.7772 50.7373 13.4311 51.6016C5.63272 61.7017 3.17892 78.8168 10.9029 91.8886C11.9744 93.7014 13.266 95.5401 14.4476 97.0292L19.2128 101.319C22.9776 92.9407 28.9276 86.5407 34.269 81.727C48.2958 69.0987 69.2599 64.858 88.6022 65.9198C93.8691 66.2111 98.9839 66.8326 103.998 67.8362C105.934 68.2246 117.18 71.3453 117.52 71.1187C118.656 70.1281 117.97 67.3182 117.844 65.9651C117.112 58.1149 113.085 53.1587 106.135 49.4618C100.483 46.4545 101.464 48.2867 99.4921 44.81C94.5813 36.1602 86.1257 27.9636 75.0577 23.9462C64.2681 20.0324 33.1683 15.9277 20.4073 10.7028C15.6324 8.75079 13.3761 7.42354 9.5465 4.5748C8.87963 4.07951 8.72425 3.9824 8.15126 3.34791C7.77251 2.93031 7.80812 2.91088 7.47469 2.51918L6.72366 1.71312C3.59652 8.21342 6.86286 19.2652 10.1778 23.5772C13.0297 27.2838 17.2446 30.508 21.6957 32.4342L26.9011 34.6225Z" fill="#070707"/>
<mask id="mask0_1_2" style="mask-type:luminance" maskUnits="userSpaceOnUse" x="1" y="1" width="118" height="101">
<path d="M26.9011 34.6225C22.4629 34.3765 17.4582 32.8647 13.6254 31.4533C9.15803 29.8088 3.92024 26.7852 2.5153 26.3256C0.0356012 34.8426 3.48322 44.5769 10.6698 49.4942C11.7187 50.2129 12.7772 50.7373 13.4311 51.6016C5.63272 61.7017 3.17892 78.8168 10.9029 91.8886C11.9744 93.7014 13.266 95.5401 14.4476 97.0292L19.2128 101.319C22.9776 92.9407 28.9276 86.5407 34.269 81.727C48.2958 69.0987 69.2599 64.858 88.6022 65.9198C93.8691 66.2111 98.9839 66.8326 103.998 67.8362C105.934 68.2246 117.18 71.3453 117.52 71.1187C118.656 70.1281 117.97 67.3182 117.844 65.9651C117.112 58.1149 113.085 53.1587 106.135 49.4618C100.483 46.4545 101.464 48.2867 99.4921 44.81C94.5813 36.1602 86.1257 27.9636 75.0577 23.9462C64.2681 20.0324 33.1683 15.9277 20.4073 10.7028C15.6324 8.75079 13.3761 7.42354 9.5465 4.5748C8.87963 4.07951 8.72425 3.9824 8.15126 3.34791C7.77251 2.93031 7.80812 2.91088 7.47469 2.51918L6.72366 1.71312C3.59652 8.21342 6.86286 19.2652 10.1778 23.5772C13.0297 27.2838 17.2446 30.508 21.6957 32.4342L26.9011 34.6225Z" fill="white"/>
</mask>
<g mask="url(#mask0_1_2)">
<path fill-rule="evenodd" clip-rule="evenodd" d="M61.4388 12.7131L65.7961 19.1098L70.1534 25.5065L74.5139 19.1098L78.8712 12.7131H70.1534H61.4388Z" fill="#356696"/>
<path fill-rule="evenodd" clip-rule="evenodd" d="M78.8712 12.7131L83.2284 19.1098L87.5857 25.5065L91.943 19.1098L96.3002 12.7131H87.5857H78.8712Z" fill="#356696"/>
<path fill-rule="evenodd" clip-rule="evenodd" d="M96.3002 12.7131L100.661 19.1098L105.018 25.5065L109.375 19.1098L113.733 12.7131H105.018H96.3002Z" fill="#356696"/>
<path fill-rule="evenodd" clip-rule="evenodd" d="M113.729 12.7131L118.087 19.1098L122.447 25.5065L126.804 19.1098L131.162 12.7131H122.447H113.729Z" fill="#356696"/>
<path fill-rule="evenodd" clip-rule="evenodd" d="M26.5742 12.7131L30.9315 19.1098L35.292 25.5065L39.6492 19.1098L44.0065 12.7131H35.292H26.5742Z" fill="#356696"/>
<path fill-rule="evenodd" clip-rule="evenodd" d="M44.0065 12.7131L48.3638 19.1098L52.721 25.5065L57.0816 19.1098L61.4388 12.7131H52.721H44.0065Z" fill="#356696"/>
<path fill-rule="evenodd" clip-rule="evenodd" d="M-8.28723 12.7131L-3.92996 19.1098L0.427312 25.5065L4.78458 19.1098L9.14509 12.7131H0.427312H-8.28723Z" fill="#356696"/>
<path fill-rule="evenodd" clip-rule="evenodd" d="M9.1451 12.7131L13.5024 19.1098L17.8596 25.5065L22.2169 19.1098L26.5742 12.7131H17.8596H9.1451Z" fill="#356696"/>
<path fill-rule="evenodd" clip-rule="evenodd" d="M52.7178 25.513L57.0783 19.1163L61.4356 12.7196L65.7929 19.1163L70.1501 25.513H61.4356H52.7178Z" fill="#393F96"/>
<path fill-rule="evenodd" clip-rule="evenodd" d="M70.1501 25.513L74.5074 19.1163L78.8679 12.7196L83.2252 19.1163L87.5825 25.513H78.8679H70.1501Z" fill="#393F96"/>
<path fill-rule="evenodd" clip-rule="evenodd" d="M87.5825 25.513L91.9397 19.1163L96.297 12.7196L100.658 19.1163L105.015 25.513H96.297H87.5825Z" fill="#393F96"/>
<path fill-rule="evenodd" clip-rule="evenodd" d="M105.012 25.513L109.369 19.1163L113.726 12.7196L118.083 19.1163L122.441 25.513H113.726H105.012Z" fill="#393F96"/>
<path fill-rule="evenodd" clip-rule="evenodd" d="M17.8564 25.513L22.2137 19.1163L26.571 12.7196L30.9282 19.1163L35.2887 25.513H26.571H17.8564Z" fill="#393F96"/>
<path fill-rule="evenodd" clip-rule="evenodd" d="M35.2887 25.513L39.646 19.1163L44.0033 12.7196L48.3605 19.1163L52.7178 25.513H44.0033H35.2887Z" fill="#393F96"/>
<path fill-rule="evenodd" clip-rule="evenodd" d="M0.424072 25.513L4.78134 19.1163L9.13862 12.7196L13.4991 19.1163L17.8564 25.513H9.13862H0.424072Z" fill="#393F96"/>
<path fill-rule="evenodd" clip-rule="evenodd" d="M70.257 -0.0576324L74.6142 6.33908L78.9715 12.7358L83.3288 6.33908L87.6861 -0.0576324H78.9715H70.257Z" fill="#13B4B6"/>
<path fill-rule="evenodd" clip-rule="evenodd" d="M87.6861 -0.0576324L92.0433 6.33908L96.4038 12.7358L100.761 6.33908L105.118 -0.0576324H96.4038H87.6861Z" fill="#13B4B6"/>
<path fill-rule="evenodd" clip-rule="evenodd" d="M105.118 -0.0576324L109.476 6.33908L113.833 12.7358L118.193 6.33908L122.551 -0.0576324H113.833H105.118Z" fill="#13B4B6"/>
<path fill-rule="evenodd" clip-rule="evenodd" d="M35.3923 -0.0576324L39.7496 6.33908L44.1069 12.7358L48.4674 6.33908L52.8247 -0.0576324H44.1069H35.3923Z" fill="#13B4B6"/>
<path fill-rule="evenodd" clip-rule="evenodd" d="M52.8246 -0.0576324L57.1819 6.33908L61.5392 12.7358L65.8965 6.33908L70.2537 -0.0576324H61.5392H52.8246Z" fill="#13B4B6"/>
<path fill-rule="evenodd" clip-rule="evenodd" d="M0.527679 -0.0576324L4.88819 6.33908L9.24546 12.7358L13.6027 6.33908L17.96 -0.0576324H9.24546H0.527679Z" fill="#13B4B6"/>
<path fill-rule="evenodd" clip-rule="evenodd" d="M17.96 -0.0576324L22.3173 6.33908L26.6778 12.7358L31.0351 6.33908L35.3923 -0.0576324H26.6778H17.96Z" fill="#13B4B6"/>
<path fill-rule="evenodd" clip-rule="evenodd" d="M61.5359 12.7423L65.8932 6.34555L70.2505 -0.0511627L74.611 6.34555L78.9683 12.7423H70.2505H61.5359Z" fill="#2F9687"/>
<path fill-rule="evenodd" clip-rule="evenodd" d="M78.9683 12.7423L83.3255 6.34555L87.6828 -0.0511627L92.0401 6.34555L96.3973 12.7423H87.6828H78.9683Z" fill="#2F9687"/>
<path fill-rule="evenodd" clip-rule="evenodd" d="M96.4006 12.7423L100.758 6.34555L105.115 -0.0511627L109.472 6.34555L113.83 12.7423H105.115H96.4006Z" fill="#2F9687"/>
<path fill-rule="evenodd" clip-rule="evenodd" d="M113.826 12.7423L118.184 6.34555L122.544 -0.0511627L126.901 6.34555L131.259 12.7423H122.544H113.826Z" fill="#2F9687"/>
<path fill-rule="evenodd" clip-rule="evenodd" d="M26.6713 12.7423L31.0318 6.34555L35.3891 -0.0511627L39.7463 6.34555L44.1036 12.7423H35.3891H26.6713Z" fill="#2F9687"/>
<path fill-rule="evenodd" clip-rule="evenodd" d="M44.1036 12.7423L48.4609 6.34555L52.8214 -0.0511627L57.1787 6.34555L61.5359 12.7423H52.8214H44.1036Z" fill="#2F9687"/>
<path fill-rule="evenodd" clip-rule="evenodd" d="M-8.19012 12.7423L-3.83285 6.34555L0.524419 -0.0511627L4.88169 6.34555L9.2422 12.7423H0.524419H-8.19012Z" fill="#2F9687"/>
<path fill-rule="evenodd" clip-rule="evenodd" d="M9.2422 12.7423L13.5995 6.34555L17.9567 -0.0511627L22.314 6.34555L26.6713 12.7423H17.9567H9.2422Z" fill="#2F9687"/>
<path fill-rule="evenodd" clip-rule="evenodd" d="M70.1663 25.5033L74.5236 31.9L78.8809 38.2935L83.2381 31.9L87.5954 25.5033H78.8809H70.1663Z" fill="#692E8C"/>
<path fill-rule="evenodd" clip-rule="evenodd" d="M87.5954 25.5033L91.9559 31.9L96.3132 38.2935L100.67 31.9L105.028 25.5033H96.3132H87.5954Z" fill="#692E8C"/>
<path fill-rule="evenodd" clip-rule="evenodd" d="M105.028 25.5033L109.385 31.9L113.746 38.2935L118.103 31.9L122.46 25.5033H113.746H105.028Z" fill="#692E8C"/>
<path fill-rule="evenodd" clip-rule="evenodd" d="M35.3017 25.5033L39.6589 31.9L44.0162 38.2935L48.3767 31.9L52.734 25.5033H44.0162H35.3017Z" fill="#692E8C"/>
<path fill-rule="evenodd" clip-rule="evenodd" d="M52.734 25.5033L57.0913 31.9L61.4485 38.2935L65.8058 31.9L70.1663 25.5033H61.4485H52.734Z" fill="#692E8C"/>
<path fill-rule="evenodd" clip-rule="evenodd" d="M0.437012 25.5033L4.79752 31.9L9.15479 38.2935L13.5121 31.9L17.8693 25.5033H9.15479H0.437012Z" fill="#692E8C"/>
<path fill-rule="evenodd" clip-rule="evenodd" d="M17.8693 25.5033L22.2266 31.9L26.5871 38.2935L30.9444 31.9L35.3017 25.5033H26.5871H17.8693Z" fill="#692E8C"/>
<path fill-rule="evenodd" clip-rule="evenodd" d="M61.4453 38.3L65.8026 31.9065L70.1598 25.5098L74.5203 31.9065L78.8776 38.3H70.1598H61.4453Z" fill="#962488"/>
<path fill-rule="evenodd" clip-rule="evenodd" d="M78.8776 38.3L83.2349 31.9065L87.5922 25.5098L91.9494 31.9065L96.31 38.3H87.5922H78.8776Z" fill="#962488"/>
<path fill-rule="evenodd" clip-rule="evenodd" d="M96.31 38.3L100.667 31.9065L105.024 25.5098L109.382 31.9065L113.739 38.3H105.024H96.31Z" fill="#962488"/>
<path fill-rule="evenodd" clip-rule="evenodd" d="M113.736 38.3L118.093 31.9065L122.454 25.5098L126.811 31.9065L131.168 38.3H122.454H113.736Z" fill="#962488"/>
<path fill-rule="evenodd" clip-rule="evenodd" d="M26.5807 38.3L30.9412 31.9065L35.2984 25.5098L39.6557 31.9065L44.013 38.3H35.2984H26.5807Z" fill="#962488"/>
<path fill-rule="evenodd" clip-rule="evenodd" d="M44.013 38.3L48.3702 31.9065L52.7307 25.5098L57.088 31.9065L61.4453 38.3H52.7307H44.013Z" fill="#962488"/>
<path fill-rule="evenodd" clip-rule="evenodd" d="M-8.28076 38.3L-3.92349 31.9065L0.433782 25.5098L4.79429 31.9065L9.15156 38.3H0.433782H-8.28076Z" fill="#962488"/>
<path fill-rule="evenodd" clip-rule="evenodd" d="M9.15157 38.3L13.5088 31.9065L17.8661 25.5098L22.2234 31.9065L26.5807 38.3H17.8661H9.15157Z" fill="#962488"/>
<path fill-rule="evenodd" clip-rule="evenodd" d="M61.5036 38.2482L65.8609 44.6416L70.2181 51.0383L74.5754 44.6416L78.9359 38.2482H70.2181H61.5036Z" fill="#C00072"/>
<path fill-rule="evenodd" clip-rule="evenodd" d="M78.9359 38.2482L83.2932 44.6416L87.6505 51.0383L92.0077 44.6416L96.365 38.2482H87.6505H78.9359Z" fill="#C00072"/>
<path fill-rule="evenodd" clip-rule="evenodd" d="M96.365 38.2482L100.725 44.6416L105.083 51.0383L109.44 44.6416L113.797 38.2482H105.083H96.365Z" fill="#C00072"/>
<path fill-rule="evenodd" clip-rule="evenodd" d="M113.794 38.2482L118.151 44.6416L122.509 51.0383L126.869 44.6416L131.226 38.2482H122.509H113.794Z" fill="#C00072"/>
<path fill-rule="evenodd" clip-rule="evenodd" d="M26.6389 38.2482L30.9962 44.6416L35.3567 51.0383L39.714 44.6416L44.0713 38.2482H35.3567H26.6389Z" fill="#C00072"/>
<path fill-rule="evenodd" clip-rule="evenodd" d="M44.0713 38.2482L48.4285 44.6416L52.7858 51.0383L57.1463 44.6416L61.5036 38.2482H52.7858H44.0713Z" fill="#C00072"/>
<path fill-rule="evenodd" clip-rule="evenodd" d="M-8.22247 38.2482L-3.8652 44.6416L0.49207 51.0383L4.84934 44.6416L9.20661 38.2482H0.49207H-8.22247Z" fill="#C00072"/>
<path fill-rule="evenodd" clip-rule="evenodd" d="M9.20662 38.2482L13.5671 44.6416L17.9244 51.0383L22.2817 44.6416L26.6389 38.2482H17.9244H9.20662Z" fill="#C00072"/>
<path fill-rule="evenodd" clip-rule="evenodd" d="M52.7825 51.0448L57.1398 44.6513L61.5003 38.2546L65.8576 44.6513L70.2149 51.0448H61.5003H52.7825Z" fill="#CE0948"/>
<path fill-rule="evenodd" clip-rule="evenodd" d="M70.2149 51.0448L74.5721 44.6513L78.9294 38.2546L83.2899 44.6513L87.6472 51.0448H78.9294H70.2149Z" fill="#CE0948"/>
<path fill-rule="evenodd" clip-rule="evenodd" d="M87.6472 51.0448L92.0045 44.6513L96.3617 38.2546L100.719 44.6513L105.08 51.0448H96.3617H87.6472Z" fill="#CE0948"/>
<path fill-rule="evenodd" clip-rule="evenodd" d="M105.076 51.0448L109.434 44.6513L113.791 38.2546L118.148 44.6513L122.505 51.0448H113.791H105.076Z" fill="#CE0948"/>
<path fill-rule="evenodd" clip-rule="evenodd" d="M17.9211 51.0448L22.2784 44.6513L26.6357 38.2546L30.993 44.6513L35.3535 51.0448H26.6357H17.9211Z" fill="#CE0948"/>
<path fill-rule="evenodd" clip-rule="evenodd" d="M35.3502 51.0448L39.7107 44.6513L44.068 38.2546L48.4253 44.6513L52.7825 51.0448H44.068H35.3502Z" fill="#CE0948"/>
<path fill-rule="evenodd" clip-rule="evenodd" d="M0.4888 51.0448L4.84607 44.6513L9.20334 38.2546L13.5606 44.6513L17.9211 51.0448H9.20334H0.4888Z" fill="#CE0948"/>
<path fill-rule="evenodd" clip-rule="evenodd" d="M70.1922 51.0157L74.5495 57.4124L78.9068 63.8091L83.264 57.4124L87.6213 51.0157H78.9068H70.1922Z" fill="#E50C12"/>
<path fill-rule="evenodd" clip-rule="evenodd" d="M87.6213 51.0157L91.9818 57.4124L96.3391 63.8091L100.696 57.4124L105.054 51.0157H96.3391H87.6213Z" fill="#E50C12"/>
<path fill-rule="evenodd" clip-rule="evenodd" d="M105.054 51.0157L109.411 57.4124L113.771 63.8091L118.129 57.4124L122.486 51.0157H113.771H105.054Z" fill="#E50C12"/>
<path fill-rule="evenodd" clip-rule="evenodd" d="M35.3276 51.0157L39.6848 57.4124L44.0421 63.8091L48.4026 57.4124L52.7599 51.0157H44.0421H35.3276Z" fill="#E50C12"/>
<path fill-rule="evenodd" clip-rule="evenodd" d="M52.7599 51.0157L57.1172 57.4124L61.4744 63.8091L65.8317 57.4124L70.189 51.0157H61.4744H52.7599Z" fill="#E50C12"/>
<path fill-rule="evenodd" clip-rule="evenodd" d="M0.462921 51.0157L4.82343 57.4124L9.1807 63.8091L13.538 57.4124L17.8952 51.0157H9.1807H0.462921Z" fill="#E50C12"/>
<path fill-rule="evenodd" clip-rule="evenodd" d="M17.8952 51.0157L22.2525 57.4124L26.613 63.8091L30.9703 57.4124L35.3276 51.0157H26.613H17.8952Z" fill="#E50C12"/>
<path fill-rule="evenodd" clip-rule="evenodd" d="M61.4712 63.8156L65.8285 57.4189L70.189 51.0222L74.5463 57.4189L78.9035 63.8156H70.189H61.4712Z" fill="#E23A11"/>
<path fill-rule="evenodd" clip-rule="evenodd" d="M78.9035 63.8156L83.2608 57.4189L87.6181 51.0222L91.9753 57.4189L96.3359 63.8156H87.6181H78.9035Z" fill="#E23A11"/>
<path fill-rule="evenodd" clip-rule="evenodd" d="M96.3358 63.8156L100.693 57.4189L105.05 51.0222L109.408 57.4189L113.765 63.8156H105.05H96.3358Z" fill="#E23A11"/>
<path fill-rule="evenodd" clip-rule="evenodd" d="M113.762 63.8156L118.122 57.4189L122.479 51.0222L126.837 57.4189L131.194 63.8156H122.479H113.762Z" fill="#E23A11"/>
<path fill-rule="evenodd" clip-rule="evenodd" d="M26.6066 63.8156L30.9671 57.4189L35.3243 51.0222L39.6816 57.4189L44.0389 63.8156H35.3243H26.6066Z" fill="#E23A11"/>
<path fill-rule="evenodd" clip-rule="evenodd" d="M44.0389 63.8156L48.3962 57.4189L52.7567 51.0222L57.1139 57.4189L61.4712 63.8156H52.7567H44.0389Z" fill="#E23A11"/>
<path fill-rule="evenodd" clip-rule="evenodd" d="M-8.25485 63.8156L-3.89758 57.4189L0.459691 51.0222L4.81696 57.4189L9.17747 63.8156H0.459691H-8.25485Z" fill="#E23A11"/>
<path fill-rule="evenodd" clip-rule="evenodd" d="M9.17747 63.8156L13.5347 57.4189L17.892 51.0222L22.2493 57.4189L26.6066 63.8156H17.892H9.17747Z" fill="#E23A11"/>
<path fill-rule="evenodd" clip-rule="evenodd" d="M61.468 63.8156L65.8252 70.2123L70.1858 76.609L74.543 70.2123L78.9003 63.8156H70.1858H61.468Z" fill="#E24F0E"/>
<path fill-rule="evenodd" clip-rule="evenodd" d="M78.9003 63.8156L83.2576 70.2123L87.6148 76.609L91.9721 70.2123L96.3326 63.8156H87.6148H78.9003Z" fill="#E24F0E"/>
<path fill-rule="evenodd" clip-rule="evenodd" d="M96.3326 63.8156L100.69 70.2123L105.047 76.609L109.404 70.2123L113.765 63.8156H105.047H96.3326Z" fill="#E24F0E"/>
<path fill-rule="evenodd" clip-rule="evenodd" d="M113.762 63.8156L118.119 70.2123L122.476 76.609L126.834 70.2123L131.191 63.8156H122.476H113.762Z" fill="#E24F0E"/>
<path fill-rule="evenodd" clip-rule="evenodd" d="M26.6066 63.8156L30.9638 70.2123L35.3211 76.609L39.6784 70.2123L44.0357 63.8156H35.3211H26.6066Z" fill="#E24F0E"/>
<path fill-rule="evenodd" clip-rule="evenodd" d="M44.0356 63.8156L48.3962 70.2123L52.7534 76.609L57.1107 70.2123L61.468 63.8156H52.7534H44.0356Z" fill="#E24F0E"/>
<path fill-rule="evenodd" clip-rule="evenodd" d="M-8.25809 63.8156L-3.90082 70.2123L0.459694 76.609L4.81696 70.2123L9.17424 63.8156H0.459694H-8.25809Z" fill="#E24F0E"/>
<path fill-rule="evenodd" clip-rule="evenodd" d="M9.17424 63.8156L13.5315 70.2123L17.8888 76.609L22.2461 70.2123L26.6066 63.8156H17.8888H9.17424Z" fill="#E24F0E"/>
<path fill-rule="evenodd" clip-rule="evenodd" d="M52.7502 76.6155L57.1074 70.2187L61.4647 63.822L65.822 70.2187L70.1825 76.6155H61.4647H52.7502Z" fill="#E77800"/>
<path fill-rule="evenodd" clip-rule="evenodd" d="M70.1825 76.6155L74.5398 70.2187L78.897 63.822L83.2543 70.2187L87.6116 76.6155H78.897H70.1825Z" fill="#E77800"/>
<path fill-rule="evenodd" clip-rule="evenodd" d="M87.6116 76.6155L91.9689 70.2187L96.3294 63.822L100.687 70.2187L105.044 76.6155H96.3294H87.6116Z" fill="#E77800"/>
<path fill-rule="evenodd" clip-rule="evenodd" d="M105.041 76.6155L109.398 70.2187L113.755 63.822L118.116 70.2187L122.473 76.6155H113.755H105.041Z" fill="#E77800"/>
<path fill-rule="evenodd" clip-rule="evenodd" d="M17.8855 76.6155L22.2428 70.2187L26.6033 63.822L30.9606 70.2187L35.3179 76.6155H26.6033H17.8855Z" fill="#E77800"/>
<path fill-rule="evenodd" clip-rule="evenodd" d="M35.3178 76.6155L39.6751 70.2187L44.0324 63.822L48.3897 70.2187L52.7502 76.6155H44.0324H35.3178Z" fill="#E77800"/>
<path fill-rule="evenodd" clip-rule="evenodd" d="M0.453186 76.6155L4.81046 70.2187L9.17097 63.822L13.5282 70.2187L17.8855 76.6155H9.17097H0.453186Z" fill="#E77800"/>
<path fill-rule="evenodd" clip-rule="evenodd" d="M70.1598 76.5896L74.5171 82.9863L78.8776 89.383L83.2349 82.9863L87.5922 76.5896H78.8776H70.1598Z" fill="#EB8B00"/>
<path fill-rule="evenodd" clip-rule="evenodd" d="M87.5922 76.5896L91.9494 82.9863L96.3067 89.383L100.664 82.9863L105.024 76.5896H96.3067H87.5922Z" fill="#EB8B00"/>
<path fill-rule="evenodd" clip-rule="evenodd" d="M105.024 76.5896L109.382 82.9863L113.739 89.383L118.096 82.9863L122.454 76.5896H113.739H105.024Z" fill="#EB8B00"/>
<path fill-rule="evenodd" clip-rule="evenodd" d="M35.2984 76.5896L39.6557 82.9863L44.013 89.383L48.3702 82.9863L52.7275 76.5896H44.013H35.2984Z" fill="#EB8B00"/>
<path fill-rule="evenodd" clip-rule="evenodd" d="M52.7275 76.5896L57.0848 82.9863L61.4453 89.383L65.8026 82.9863L70.1598 76.5896H61.4453H52.7275Z" fill="#EB8B00"/>
<path fill-rule="evenodd" clip-rule="evenodd" d="M0.433777 76.5896L4.79105 82.9863L9.14832 89.383L13.5088 82.9863L17.8661 76.5896H9.14832H0.433777Z" fill="#EB8B00"/>
<path fill-rule="evenodd" clip-rule="evenodd" d="M17.8661 76.5896L22.2234 82.9863L26.5806 89.383L30.9379 82.9863L35.2952 76.5896H26.5806H17.8661Z" fill="#EB8B00"/>
<path fill-rule="evenodd" clip-rule="evenodd" d="M61.4421 89.3895L65.7993 82.9927L70.1566 76.5993L74.5139 82.9927L78.8711 89.3895H70.1566H61.4421Z" fill="#F7B200"/>
<path fill-rule="evenodd" clip-rule="evenodd" d="M78.8712 89.3895L83.2317 82.9927L87.5889 76.5993L91.9462 82.9927L96.3035 89.3895H87.5889H78.8712Z" fill="#F7B200"/>
<path fill-rule="evenodd" clip-rule="evenodd" d="M96.3035 89.3895L100.661 82.9927L105.021 76.5993L109.379 82.9927L113.736 89.3895H105.021H96.3035Z" fill="#F7B200"/>
<path fill-rule="evenodd" clip-rule="evenodd" d="M113.733 89.3895L118.09 82.9927L122.447 76.5993L126.804 82.9927L131.165 89.3895H122.447H113.733Z" fill="#F7B200"/>
<path fill-rule="evenodd" clip-rule="evenodd" d="M26.5774 89.3895L30.9347 82.9927L35.292 76.5993L39.6525 82.9927L44.0097 89.3895H35.292H26.5774Z" fill="#F7B200"/>
<path fill-rule="evenodd" clip-rule="evenodd" d="M44.0097 89.3895L48.367 82.9927L52.7243 76.5993L57.0816 82.9927L61.4388 89.3895H52.7243H44.0097Z" fill="#F7B200"/>
<path fill-rule="evenodd" clip-rule="evenodd" d="M-8.28723 89.3895L-3.92672 82.9927L0.430549 76.5993L4.78782 82.9927L9.14509 89.3895H0.430549H-8.28723Z" fill="#F7B200"/>
<path fill-rule="evenodd" clip-rule="evenodd" d="M9.1451 89.3895L13.5024 82.9927L17.8596 76.5993L22.2201 82.9927L26.5774 89.3895H17.8596H9.1451Z" fill="#F7B200"/>
<path fill-rule="evenodd" clip-rule="evenodd" d="M61.4097 89.383L65.767 95.7797L70.1242 102.176L74.4815 95.7797L78.842 89.383H70.1242H61.4097Z" fill="#B9D32C"/>
<path fill-rule="evenodd" clip-rule="evenodd" d="M78.842 89.383L83.1993 95.7797L87.5566 102.176L91.9138 95.7797L96.2711 89.383H87.5566H78.842Z" fill="#B9D32C"/>
<path fill-rule="evenodd" clip-rule="evenodd" d="M96.2711 89.383L100.632 95.7797L104.989 102.176L109.346 95.7797L113.703 89.383H104.989H96.2711Z" fill="#B9D32C"/>
<path fill-rule="evenodd" clip-rule="evenodd" d="M113.7 89.383L118.057 95.7797L122.415 102.176L126.775 95.7797L131.133 89.383H122.415H113.7Z" fill="#B9D32C"/>
<path fill-rule="evenodd" clip-rule="evenodd" d="M26.545 89.383L30.9056 95.7797L35.2628 102.176L39.6201 95.7797L43.9774 89.383H35.2628H26.545Z" fill="#B9D32C"/>
<path fill-rule="evenodd" clip-rule="evenodd" d="M43.9774 89.383L48.3346 95.7797L52.6919 102.176L57.0524 95.7797L61.4097 89.383H52.6919H43.9774Z" fill="#B9D32C"/>
<path fill-rule="evenodd" clip-rule="evenodd" d="M-8.31638 89.383L-3.9591 95.7797L0.398168 102.176L4.75544 95.7797L9.11271 89.383H0.398168H-8.31638Z" fill="#B9D32C"/>
<path fill-rule="evenodd" clip-rule="evenodd" d="M9.11272 89.383L13.4732 95.7797L17.8305 102.176L22.1878 95.7797L26.545 89.383H17.8305H9.11272Z" fill="#B9D32C"/>
<path fill-rule="evenodd" clip-rule="evenodd" d="M52.6887 102.183L57.0492 95.7862L61.4065 89.3895L65.7637 95.7862L70.121 102.183H61.4065H52.6887Z" fill="#D4DE37"/>
<path fill-rule="evenodd" clip-rule="evenodd" d="M70.121 102.183L74.4783 95.7862L78.8355 89.3895L83.1961 95.7862L87.5533 102.183H78.8355H70.121Z" fill="#D4DE37"/>
<path fill-rule="evenodd" clip-rule="evenodd" d="M87.5533 102.183L91.9106 95.7862L96.2679 89.3895L100.628 95.7862L104.986 102.183H96.2679H87.5533Z" fill="#D4DE37"/>
<path fill-rule="evenodd" clip-rule="evenodd" d="M104.982 102.183L109.34 95.7862L113.697 89.3895L118.054 95.7862L122.412 102.183H113.697H104.982Z" fill="#D4DE37"/>
<path fill-rule="evenodd" clip-rule="evenodd" d="M17.8273 102.183L22.1845 95.7862L26.5418 89.3895L30.8991 95.7862L35.2564 102.183H26.5418H17.8273Z" fill="#D4DE37"/>
<path fill-rule="evenodd" clip-rule="evenodd" d="M35.2563 102.183L39.6169 95.7862L43.9741 89.3895L48.3314 95.7862L52.6887 102.183H43.9741H35.2563Z" fill="#D4DE37"/>
<path fill-rule="evenodd" clip-rule="evenodd" d="M0.394928 102.183L4.7522 95.7862L9.10947 89.3895L13.4667 95.7862L17.8273 102.183H9.10947H0.394928Z" fill="#D4DE37"/>
</g>
</g>
<defs>
<clipPath id="clip0_1_2">
<rect width="119.88" height="103.035" fill="white"/>
</clipPath>
</defs>
</svg>
