<?xml version="1.0" encoding="UTF-8"?>
<!DOCTYPE svg PUBLIC "-//W3C//DTD SVG 1.1//EN" "http://www.w3.org/Graphics/SVG/1.1/DTD/svg11.dtd">
<!-- Creator: CorelDRAW 2021 (64-Bit) -->
<svg xmlns="http://www.w3.org/2000/svg" xml:space="preserve" width="2.062in" height="2.05898in" version="1.1" style="shape-rendering:geometricPrecision; text-rendering:geometricPrecision; image-rendering:optimizeQuality; fill-rule:evenodd; clip-rule:evenodd"
viewBox="0 0 199.69 199.4"
 xmlns:xlink="http://www.w3.org/1999/xlink"
 xmlns:xodm="http://www.corel.com/coreldraw/odm/2003">
 <defs>
  <style type="text/css">
   <![CDATA[
    .fil0 {fill:#FCFCFC}
    .fil1 {fill:#FDFDFD}
   ]]>
  </style>
 </defs>
 <g id="shadows">
  <metadata id="CorelCorpID_0Corel-Layer"/>
  <g id="_2438123230592">
   <path class="fil0" d="M22.87 51.11zm0 0zm0 0c5.08,-19.03 46.66,-49.12 82.86,-43.85 19.84,2.89 34.05,8.16 47.37,17.19 11.81,8 23.4,21.12 29.27,35.29 29.86,72 -28.83,148.25 -105.73,128.6 -57.19,-14.61 -79.62,-80.62 -44.06,-115.41 11.56,-11.3 25.07,-17.37 45.67,-18.98 30.41,-2.38 74.77,22.19 63.24,61.98 -2.11,7.29 -7.55,15.21 -12.73,19.55 -12.71,10.65 -32.74,15.9 -50.43,13.49 -2.69,-0.37 -9.86,-1.78 -13.19,-2.95 -4.92,-1.73 -6.18,-3.6 -11.34,-4.8 2.28,3.11 12.32,9.42 16.56,11.68 59.05,31.53 113.82,-21.17 97.49,-74.63 -7.58,-24.82 -32.92,-47.41 -60.39,-52.59 -38.27,-7.21 -59.41,8.55 -84.6,25.41zm-22.87 40.35c0,32.91 4.57,55.06 28.56,79.04 39.25,39.25 105.13,38.44 143.97,-2.01 31.19,-32.49 36.34,-84.96 11.16,-123.53 -14.62,-22.4 -44.3,-44.96 -76.09,-44.96 -25.13,0 -45.05,1.81 -66.51,18.23 -20.6,15.76 -41.09,41.77 -41.09,73.23z"/>
   <path class="fil1" d="M51.11 99.53c0,32.91 68.6,30.58 68.6,0 0,-33.02 -68.6,-30.47 -68.6,0z"/>
  </g>
 </g>
</svg>
